<svg width="144" height="33" viewBox="0 0 144 33" fill="none" xmlns="http://www.w3.org/2000/svg">
<path d="M9.592 16.68C9.4 18.136 9.304 19.264 9.304 20.064C9.304 20.864 9.552 21.264 10.048 21.264C10.544 21.264 11.128 20.896 11.8 20.16C12.488 19.424 13.128 18.416 13.72 17.136C14.312 15.856 14.672 14.56 14.8 13.248C14.8 11.92 14.12 10.408 12.76 8.712C13.08 8.024 13.496 7.408 14.008 6.864C14.52 6.304 14.952 5.92 15.304 5.712L15.832 5.376C16.424 5.376 16.928 5.808 17.344 6.672C17.776 7.52 17.992 8.464 17.992 9.504C17.992 11.296 17.472 13.36 16.432 15.696C15.392 18.032 14.096 20.048 12.544 21.744C10.992 23.44 9.56 24.288 8.248 24.288C7.4 24.288 6.736 23.984 6.256 23.376C5.792 22.752 5.56 22.008 5.56 21.144C5.56 20.28 5.664 18.864 5.872 16.896C4.384 16.752 3.152 16.248 2.176 15.384C1.216 14.504 0.736 13.432 0.736 12.168C0.736 10.888 1.328 9.704 2.512 8.616C3.712 7.512 5.08 6.96 6.616 6.96C8.968 6.96 10.144 8.424 10.144 11.352C10.144 12.088 10.088 12.84 9.976 13.608L9.808 15.024C10.608 14.832 11.248 14.6 11.728 14.328L11.992 14.184C12.328 14.52 12.504 15.032 12.52 15.72C11.528 16.184 10.552 16.504 9.592 16.68ZM6.4 11.376C6.4 10.544 6.312 9.952 6.136 9.6C5.96 9.232 5.608 9.048 5.08 9.048C4.568 9.048 3.96 9.352 3.256 9.96C2.568 10.552 2.224 11.296 2.224 12.192C2.224 13.072 2.592 13.816 3.328 14.424C4.08 15.016 4.984 15.312 6.04 15.312C6.28 13.52 6.4 12.208 6.4 11.376ZM22.6021 14.856C22.6021 15.528 22.3861 16.688 21.9541 18.336C21.5221 19.968 21.3061 21.04 21.3061 21.552C21.3061 22.048 21.3781 22.296 21.5221 22.296C21.6181 22.296 21.9861 22.144 22.6261 21.84L22.9141 21.696L23.3221 22.536C23.1781 22.664 22.9861 22.824 22.7461 23.016C22.5061 23.208 22.0581 23.472 21.4021 23.808C20.7461 24.128 20.1381 24.288 19.5781 24.288C19.0181 24.288 18.5781 24.12 18.2581 23.784C17.9381 23.432 17.7781 22.968 17.7781 22.392C17.7781 21.8 17.9781 20.76 18.3781 19.272C18.7781 17.768 18.9781 16.792 18.9781 16.344C18.9781 15.672 18.7701 15.04 18.3541 14.448L18.1381 14.16L18.1621 13.848C19.0101 13.608 20.3861 13.488 22.2901 13.488C22.4981 13.728 22.6021 14.184 22.6021 14.856ZM19.8661 10.872C19.5461 10.552 19.3861 10.128 19.3861 9.6C19.3861 9.072 19.6021 8.608 20.0341 8.208C20.4821 7.808 20.9941 7.608 21.5701 7.608C22.1461 7.608 22.5941 7.768 22.9141 8.088C23.2341 8.408 23.3941 8.832 23.3941 9.36C23.3941 9.872 23.1621 10.328 22.6981 10.728C22.2501 11.128 21.7461 11.328 21.1861 11.328C20.6261 11.328 20.1861 11.176 19.8661 10.872ZM31.5891 20.856C31.5891 21.864 31.1411 22.688 30.2451 23.328C29.3651 23.968 28.3571 24.288 27.2211 24.288C26.0851 24.288 25.1811 24.048 24.5091 23.568C23.8531 23.088 23.5251 22.664 23.5251 22.296C23.5251 22.072 23.8051 21.712 24.3651 21.216C24.9251 20.704 25.3971 20.392 25.7811 20.28C26.5811 20.872 27.2371 21.808 27.7491 23.088C28.3411 23.04 28.6371 22.76 28.6371 22.248C28.6371 21.512 27.9891 20.472 26.6931 19.128C25.3971 17.768 24.7491 16.688 24.7491 15.888C24.7491 15.088 25.1091 14.472 25.8291 14.04C26.5491 13.592 27.4131 13.368 28.4211 13.368C29.4451 13.368 30.2131 13.552 30.7251 13.92C31.2371 14.272 31.4931 14.76 31.4931 15.384C31.4931 15.992 31.0051 16.84 30.0291 17.928C30.1411 18.04 30.2851 18.192 30.4611 18.384C30.6371 18.56 30.8691 18.904 31.1571 19.416C31.4451 19.928 31.5891 20.408 31.5891 20.856ZM29.2851 17.088C29.9571 16.512 30.2931 15.944 30.2931 15.384C30.2931 14.824 29.9091 14.544 29.1411 14.544C28.7731 14.544 28.4691 14.624 28.2291 14.784C27.9891 14.928 27.8691 15.096 27.8691 15.288C27.8691 15.64 28.2211 16.136 28.9251 16.776L29.2851 17.088ZM37.6724 14.856C37.6724 15.528 37.4564 16.688 37.0244 18.336C36.5924 19.968 36.3764 21.04 36.3764 21.552C36.3764 22.048 36.4484 22.296 36.5924 22.296C36.6884 22.296 37.0564 22.144 37.6964 21.84L37.9844 21.696L38.3924 22.536C38.2484 22.664 38.0564 22.824 37.8164 23.016C37.5764 23.208 37.1284 23.472 36.4724 23.808C35.8164 24.128 35.2084 24.288 34.6484 24.288C34.0884 24.288 33.6484 24.12 33.3284 23.784C33.0084 23.432 32.8484 22.968 32.8484 22.392C32.8484 21.8 33.0484 20.76 33.4484 19.272C33.8484 17.768 34.0484 16.792 34.0484 16.344C34.0484 15.672 33.8404 15.04 33.4244 14.448L33.2084 14.16L33.2324 13.848C34.0804 13.608 35.4564 13.488 37.3604 13.488C37.5684 13.728 37.6724 14.184 37.6724 14.856ZM34.9364 10.872C34.6164 10.552 34.4564 10.128 34.4564 9.6C34.4564 9.072 34.6724 8.608 35.1044 8.208C35.5524 7.808 36.0644 7.608 36.6404 7.608C37.2164 7.608 37.6644 7.768 37.9844 8.088C38.3044 8.408 38.4644 8.832 38.4644 9.36C38.4644 9.872 38.2324 10.328 37.7684 10.728C37.3204 11.128 36.8164 11.328 36.2564 11.328C35.6964 11.328 35.2564 11.176 34.9364 10.872ZM46.7554 13.656C46.7234 14.056 46.5874 14.52 46.3474 15.048C45.7394 14.984 45.1634 14.952 44.6194 14.952H44.1874C43.4514 18.52 43.0834 20.744 43.0834 21.624C43.0834 22.088 43.1794 22.32 43.3714 22.32C43.5794 22.32 44.1154 22.12 44.9794 21.72L45.4114 22.512C43.9874 23.696 42.6674 24.288 41.4514 24.288C40.8914 24.288 40.4274 24.112 40.0594 23.76C39.7074 23.408 39.5314 22.944 39.5314 22.368C39.5314 21.776 39.5954 21.112 39.7234 20.376C39.8674 19.64 40.0594 18.744 40.2994 17.688C40.5394 16.616 40.7154 15.752 40.8274 15.096C40.2354 15.144 39.7954 15.192 39.5074 15.24C39.4754 15.048 39.4594 14.792 39.4594 14.472C39.4594 14.136 39.4834 13.864 39.5314 13.656H41.0434C41.1714 12.792 41.2354 11.976 41.2354 11.208L41.2114 10.464V10.392C42.4594 9.96 43.6354 9.744 44.7394 9.744C44.8034 10.064 44.8354 10.464 44.8354 10.944C44.8354 11.424 44.6994 12.328 44.4274 13.656H46.7554ZM56.8863 24.288C55.3023 24.288 54.0223 23.696 53.0463 22.512C52.0703 21.312 51.5823 19.728 51.5823 17.76C51.5823 15.792 51.9183 14.008 52.5903 12.408C53.2783 10.792 54.2543 9.48 55.5183 8.472C56.7823 7.464 58.1823 6.96 59.7183 6.96C60.2943 6.96 60.8063 7.048 61.2543 7.224C62.4063 6.456 63.5983 6.072 64.8303 6.072C65.4063 6.072 65.9423 6.16 66.4383 6.336C66.9503 6.496 67.3263 6.696 67.5663 6.936C67.4383 7.48 67.2303 7.976 66.9423 8.424C66.1903 7.864 65.4303 7.584 64.6623 7.584C63.8943 7.584 63.1903 7.736 62.5503 8.04C63.3023 8.84 63.6783 9.976 63.6783 11.448C63.6783 12.904 63.2943 14.232 62.5262 15.432C61.7583 16.632 60.7983 17.232 59.6463 17.232C58.9583 17.232 58.3983 16.944 57.9663 16.368C57.5503 15.792 57.3423 15.072 57.3423 14.208C57.3423 12.128 58.1183 10.248 59.6703 8.568C58.4063 8.616 57.3823 9.448 56.5983 11.064C55.8143 12.664 55.4223 14.6 55.4223 16.872C55.4223 20.184 56.3823 21.84 58.3023 21.84C59.6143 21.84 61.0143 21.024 62.5023 19.392L63.3423 20.088C63.1343 20.456 62.7903 20.912 62.3103 21.456C61.8463 22 61.3823 22.456 60.9183 22.824C60.4543 23.192 59.8543 23.528 59.1183 23.832C58.3823 24.136 57.6383 24.288 56.8863 24.288ZM62.0223 11.688C62.0223 10.376 61.7263 9.48 61.1343 9C60.4303 9.624 59.8623 10.384 59.4303 11.28C59.0143 12.176 58.8063 13.104 58.8063 14.064C58.8063 14.56 58.8943 14.968 59.0703 15.288C59.2623 15.608 59.5023 15.768 59.7903 15.768C60.4143 15.768 60.9423 15.328 61.3743 14.448C61.8063 13.568 62.0223 12.648 62.0223 11.688ZM71.3564 14.064C71.3884 14.032 71.4764 13.824 71.6204 13.44C72.3724 13.44 73.3804 13.664 74.6444 14.112C74.2444 15.44 73.9244 16.832 73.6844 18.288C73.4444 19.728 73.3244 20.76 73.3244 21.384C73.3244 21.992 73.3884 22.296 73.5164 22.296C73.6124 22.296 73.9644 22.144 74.5724 21.84L74.8604 21.696L75.2924 22.536C75.1484 22.664 74.9564 22.824 74.7164 23.016C74.4924 23.208 74.0604 23.472 73.4204 23.808C72.7804 24.128 72.2044 24.288 71.6924 24.288C70.7004 24.288 70.1244 23.84 69.9644 22.944C68.9404 23.84 68.0124 24.288 67.1804 24.288C66.3644 24.288 65.6684 23.968 65.0924 23.328C64.5324 22.688 64.2524 21.68 64.2524 20.304C64.2524 18.16 64.6924 16.472 65.5724 15.24C66.4524 13.992 67.5164 13.368 68.7644 13.368C69.6604 13.368 70.5244 13.6 71.3564 14.064ZM68.6204 22.248C69.0044 22.248 69.4364 22.096 69.9164 21.792C70.0284 19.536 70.4044 17.304 71.0444 15.096C70.5644 14.888 70.1564 14.784 69.8204 14.784C69.2444 14.784 68.7484 15.352 68.3324 16.488C67.9324 17.608 67.7324 18.848 67.7324 20.208C67.7324 21.568 68.0284 22.248 68.6204 22.248ZM77.5836 24.288C77.0396 24.288 76.5836 24.104 76.2156 23.736C75.8636 23.368 75.6876 22.856 75.6876 22.2C75.6876 21.528 76.0796 19.408 76.8636 15.84C77.6636 12.256 78.0636 9.672 78.0636 8.088L77.9196 7.032C79.1676 6.6 80.3356 6.384 81.4236 6.384C81.5836 6.608 81.6636 7 81.6636 7.56C81.6636 8.84 81.2556 11.32 80.4396 15C79.6396 18.664 79.2396 20.8 79.2396 21.408C79.2396 22 79.3116 22.296 79.4556 22.296L81.1356 21.696L81.5676 22.536C81.0236 22.968 80.3596 23.368 79.5756 23.736C78.8076 24.104 78.1436 24.288 77.5836 24.288ZM87.0786 14.856C87.0786 15.528 86.8626 16.688 86.4306 18.336C85.9986 19.968 85.7826 21.04 85.7826 21.552C85.7826 22.048 85.8546 22.296 85.9986 22.296C86.0946 22.296 86.4626 22.144 87.1026 21.84L87.3906 21.696L87.7986 22.536C87.6546 22.664 87.4626 22.824 87.2226 23.016C86.9826 23.208 86.5346 23.472 85.8786 23.808C85.2226 24.128 84.6146 24.288 84.0546 24.288C83.4946 24.288 83.0546 24.12 82.7346 23.784C82.4146 23.432 82.2546 22.968 82.2546 22.392C82.2546 21.8 82.4546 20.76 82.8546 19.272C83.2546 17.768 83.4546 16.792 83.4546 16.344C83.4546 15.672 83.2466 15.04 82.8306 14.448L82.6146 14.16L82.6386 13.848C83.4866 13.608 84.8626 13.488 86.7666 13.488C86.9746 13.728 87.0786 14.184 87.0786 14.856ZM84.3426 10.872C84.0226 10.552 83.8626 10.128 83.8626 9.6C83.8626 9.072 84.0786 8.608 84.5106 8.208C84.9586 7.808 85.4706 7.608 86.0466 7.608C86.6226 7.608 87.0706 7.768 87.3906 8.088C87.7106 8.408 87.8706 8.832 87.8706 9.36C87.8706 9.872 87.6386 10.328 87.1746 10.728C86.7266 11.128 86.2226 11.328 85.6626 11.328C85.1026 11.328 84.6626 11.176 84.3426 10.872ZM95.6577 13.656C95.6257 14.008 95.4817 14.472 95.2257 15.048C94.6177 14.984 94.0177 14.952 93.4257 14.952H93.3297C92.9937 18.904 92.6817 21.824 92.3937 23.712C92.1057 25.6 91.7297 26.92 91.2657 27.672C90.6897 27.656 90.0897 27.576 89.4657 27.432C88.8577 27.304 88.4417 27.168 88.2177 27.024C88.6017 25.84 88.9857 24.056 89.3697 21.672C89.7697 19.288 90.0257 17.088 90.1377 15.072C89.6897 15.104 89.1937 15.16 88.6497 15.24C88.6017 15.032 88.5777 14.824 88.5777 14.616C88.5777 14.392 88.6097 14.072 88.6737 13.656H90.2097C90.2417 12.264 90.3137 11.208 90.4257 10.488C90.6177 9.208 91.0577 8.208 91.7457 7.488C92.4497 6.752 93.3537 6.384 94.4577 6.384C95.1617 6.384 95.7137 6.544 96.1137 6.864C96.5297 7.168 96.7377 7.656 96.7377 8.328C96.7377 9 96.4337 9.872 95.8257 10.944C95.2177 12 94.4177 12.904 93.4257 13.656H95.6577ZM93.4737 12.144C94.0977 11.616 94.5857 11.032 94.9377 10.392C95.2897 9.752 95.4657 9.176 95.4657 8.664C95.4657 8.136 95.2977 7.872 94.9617 7.872C94.2577 7.872 93.8097 8.68 93.6177 10.296C93.5537 10.84 93.5057 11.456 93.4737 12.144ZM98.6894 24.288C97.5854 24.288 96.7214 23.904 96.0974 23.136C95.4734 22.352 95.1614 21.264 95.1614 19.872C95.1614 18.096 95.6334 16.568 96.5774 15.288C97.5374 14.008 98.8574 13.368 100.537 13.368L101.401 13.416C101.673 13.272 101.977 13.2 102.313 13.2C103.577 13.2 104.209 14.392 104.209 16.776C104.865 16.744 105.529 16.656 106.201 16.512L106.585 16.416L106.729 17.352C106.201 17.576 105.489 17.776 104.593 17.952L104.113 18.048C103.809 19.728 103.193 21.192 102.265 22.44C101.337 23.672 100.145 24.288 98.6894 24.288ZM99.9854 22.224C100.657 22.224 101.257 21.792 101.785 20.928C102.329 20.064 102.705 19.152 102.913 18.192C101.201 18.192 100.345 17.552 100.345 16.272C100.345 15.76 100.449 15.28 100.657 14.832L100.777 14.592C100.713 14.56 100.633 14.544 100.537 14.544C100.441 14.544 100.369 14.56 100.321 14.592C99.9214 14.848 99.5454 15.448 99.1934 16.392C98.8414 17.336 98.6654 18.416 98.6654 19.632C98.6654 21.36 99.1054 22.224 99.9854 22.224ZM105.302 24.072H105.134C105.102 23.944 105.086 23.656 105.086 23.208C105.086 22.744 105.302 21.512 105.734 19.512C106.166 17.512 106.382 16.368 106.382 16.08C106.382 15.584 106.158 15.04 105.71 14.448L105.494 14.16L105.518 13.848C106.382 13.608 107.766 13.488 109.67 13.488C109.862 13.904 109.958 14.488 109.958 15.24C110.134 14.952 110.502 14.568 111.062 14.088C111.622 13.608 112.198 13.368 112.79 13.368C113.654 13.368 114.086 14.12 114.086 15.624C114.006 15.72 113.894 15.848 113.75 16.008C113.622 16.152 113.35 16.36 112.934 16.632C112.534 16.904 112.142 17.072 111.758 17.136C111.742 17.136 111.606 16.92 111.35 16.488C111.094 16.056 110.902 15.84 110.774 15.84C110.374 15.984 110.022 16.224 109.718 16.56C108.982 19.872 108.614 22.016 108.614 22.992C108.614 23.344 108.622 23.592 108.638 23.736C108.078 23.96 106.966 24.072 105.302 24.072ZM114.212 24.072H113.756C113.756 23.32 113.98 21.88 114.428 19.752C114.892 17.624 115.124 16.416 115.124 16.128C115.124 15.6 114.9 15.04 114.452 14.448L114.236 14.16L114.26 13.848C115.124 13.608 116.508 13.488 118.412 13.488C118.62 13.76 118.732 14.256 118.748 14.976C120.14 13.904 121.316 13.368 122.276 13.368C122.852 13.368 123.308 13.568 123.644 13.968C123.996 14.368 124.172 14.872 124.172 15.48C124.172 16.072 123.988 17.104 123.62 18.576C123.252 20.048 123.068 21.04 123.068 21.552C123.068 22.048 123.132 22.296 123.26 22.296C123.356 22.296 123.692 22.144 124.268 21.84L124.556 21.696L124.988 22.536C124.844 22.664 124.652 22.824 124.412 23.016C124.172 23.208 123.724 23.472 123.068 23.808C122.428 24.128 121.852 24.288 121.34 24.288C120.172 24.288 119.588 23.624 119.588 22.296C119.588 21.736 119.764 20.704 120.116 19.2C120.484 17.696 120.668 16.728 120.668 16.296C120.668 15.864 120.532 15.648 120.26 15.648C119.796 15.648 119.228 15.848 118.556 16.248C118.508 16.52 118.348 17.24 118.076 18.408C117.516 20.92 117.236 22.696 117.236 23.736C116.676 23.96 115.668 24.072 114.212 24.072ZM130.719 14.856C130.719 15.528 130.503 16.688 130.071 18.336C129.639 19.968 129.423 21.04 129.423 21.552C129.423 22.048 129.495 22.296 129.639 22.296C129.735 22.296 130.103 22.144 130.743 21.84L131.031 21.696L131.439 22.536C131.295 22.664 131.103 22.824 130.863 23.016C130.623 23.208 130.175 23.472 129.519 23.808C128.863 24.128 128.255 24.288 127.695 24.288C127.135 24.288 126.695 24.12 126.375 23.784C126.055 23.432 125.895 22.968 125.895 22.392C125.895 21.8 126.095 20.76 126.495 19.272C126.895 17.768 127.095 16.792 127.095 16.344C127.095 15.672 126.887 15.04 126.471 14.448L126.255 14.16L126.279 13.848C127.127 13.608 128.503 13.488 130.407 13.488C130.615 13.728 130.719 14.184 130.719 14.856ZM127.983 10.872C127.663 10.552 127.503 10.128 127.503 9.6C127.503 9.072 127.719 8.608 128.151 8.208C128.599 7.808 129.111 7.608 129.687 7.608C130.263 7.608 130.711 7.768 131.031 8.088C131.351 8.408 131.511 8.832 131.511 9.36C131.511 9.872 131.279 10.328 130.815 10.728C130.367 11.128 129.863 11.328 129.303 11.328C128.743 11.328 128.303 11.176 127.983 10.872ZM139.442 14.064C139.474 14.032 139.562 13.824 139.706 13.44C140.458 13.44 141.466 13.664 142.73 14.112C142.33 15.44 142.01 16.832 141.77 18.288C141.53 19.728 141.41 20.76 141.41 21.384C141.41 21.992 141.474 22.296 141.602 22.296C141.698 22.296 142.05 22.144 142.658 21.84L142.946 21.696L143.378 22.536C143.234 22.664 143.042 22.824 142.802 23.016C142.578 23.208 142.146 23.472 141.506 23.808C140.866 24.128 140.29 24.288 139.778 24.288C138.786 24.288 138.21 23.84 138.05 22.944C137.026 23.84 136.098 24.288 135.266 24.288C134.45 24.288 133.754 23.968 133.178 23.328C132.618 22.688 132.338 21.68 132.338 20.304C132.338 18.16 132.778 16.472 133.658 15.24C134.538 13.992 135.602 13.368 136.85 13.368C137.746 13.368 138.61 13.6 139.442 14.064ZM136.706 22.248C137.09 22.248 137.522 22.096 138.002 21.792C138.114 19.536 138.49 17.304 139.13 15.096C138.65 14.888 138.242 14.784 137.906 14.784C137.33 14.784 136.834 15.352 136.418 16.488C136.018 17.608 135.818 18.848 135.818 20.208C135.818 21.568 136.114 22.248 136.706 22.248Z" fill="white"/>
</svg>
